<svg width="15" height="15" viewBox="0 0 15 15" fill="none" xmlns="http://www.w3.org/2000/svg">
<path d="M11.8255 0.244075C11.5421 0.569509 11.5421 1.09716 11.8255 1.42259L12.5219 2.22222H8.8324C8.18323 2.22222 7.59117 2.64826 7.3082 3.31904L7.10459 3.8016C7.05301 3.92397 7.05301 4.06674 7.10459 4.18909L7.65514 5.49412C7.72569 5.66123 7.93298 5.66123 8.00352 5.49412L8.61466 4.04558C8.65501 3.94976 8.73959 3.88889 8.8324 3.88889H12.5219L11.8255 4.68853C11.5421 5.01396 11.5421 5.54156 11.8255 5.86701C12.109 6.19245 12.5685 6.19245 12.8519 5.86701L14.7874 3.64481C15.0709 3.31938 15.0709 2.79174 14.7874 2.4663L12.8519 0.244075C12.5685 -0.0813585 12.109 -0.0813585 11.8255 0.244075Z" fill="#3988FF"/>
<path d="M5.59704 11.1984C5.64862 11.076 5.64862 10.9332 5.59704 10.8109L5.04648 9.50589C4.97597 9.33878 4.7686 9.33878 4.69809 9.50589L4.08701 10.9544C4.04658 11.0502 3.96201 11.1111 3.86927 11.1111H0.725808C0.324959 11.1111 0 11.4842 0 11.9444C0 12.4047 0.324959 12.7778 0.725808 12.7778H3.86927C4.51842 12.7778 5.11045 12.3518 5.39344 11.681L5.59704 11.1984Z" fill="#3988FF"/>
<path d="M11.8255 14.7559C11.5421 14.4305 11.5421 13.9029 11.8255 13.5775L12.5219 12.7778H8.8324C8.18324 12.7778 7.59117 12.3518 7.3082 11.681L4.08701 4.04559C4.04658 3.94977 3.96201 3.8889 3.86927 3.8889H0.725808C0.324959 3.8889 0 3.5158 0 3.05556C0 2.59533 0.324959 2.22223 0.725808 2.22223H3.86927C4.51842 2.22223 5.11045 2.64826 5.39344 3.31904L8.61466 10.9545C8.65501 11.0502 8.73959 11.1111 8.8324 11.1111H12.5219L11.8255 10.3115C11.5421 9.98602 11.5421 9.45846 11.8255 9.13302C12.109 8.80757 12.5685 8.80757 12.8519 9.13302L14.7874 11.3552C15.0709 11.6807 15.0709 12.2082 14.7874 12.5337L12.8519 14.7559C12.5685 15.0814 12.109 15.0814 11.8255 14.7559Z" fill="#3988FF"/>
</svg>
