<svg width="15" height="15" viewBox="0 0 15 15" fill="none" xmlns="http://www.w3.org/2000/svg">
<path d="M14.0625 6.42934H2.94375L6.34688 1.75833C6.50601 1.53954 6.58256 1.25748 6.55971 0.974193C6.53685 0.690905 6.41645 0.429595 6.225 0.247748C6.03355 0.0659016 5.78672 -0.0215855 5.53882 0.00453334C5.29092 0.0306521 5.06225 0.168237 4.90312 0.387021L0.215625 6.81502C0.184088 6.86614 0.155887 6.91986 0.13125 6.97572C0.13125 7.02928 0.13125 7.06142 0.0656252 7.11499C0.0231316 7.23783 0.000882301 7.36859 0 7.50067C0.000882301 7.63275 0.0231316 7.76351 0.0656252 7.88635C0.0656252 7.93992 0.0656249 7.97206 0.13125 8.02562C0.155887 8.08148 0.184088 8.13519 0.215625 8.18632L4.90312 14.6143C4.99127 14.7353 5.10165 14.8325 5.22642 14.8992C5.35118 14.9658 5.48727 15.0003 5.625 15C5.84405 15.0005 6.05633 14.9133 6.225 14.7536C6.31993 14.6637 6.3984 14.5532 6.45592 14.4286C6.51344 14.3039 6.54887 14.1675 6.56019 14.0272C6.57151 13.8869 6.5585 13.7454 6.52189 13.6108C6.48529 13.4763 6.42581 13.3513 6.34688 13.243L2.94375 8.572H14.0625C14.3111 8.572 14.5496 8.45913 14.7254 8.25822C14.9012 8.0573 15 7.7848 15 7.50067C15 7.21653 14.9012 6.94404 14.7254 6.74312C14.5496 6.54221 14.3111 6.42934 14.0625 6.42934Z" fill="#3988FF"/>
</svg>
