<svg width="15" height="15" viewBox="0 0 15 15" fill="none" xmlns="http://www.w3.org/2000/svg">
<path d="M1.5 3H13.5C14.3284 3 15 2.3284 15 1.5C15 0.6716 14.3284 0 13.5 0H1.5C0.6716 0 0 0.6716 0 1.5C0 2.3284 0.6716 3 1.5 3Z" fill="#3988FF"/>
<path d="M13.5 6H1.5C0.6716 6 0 6.6716 0 7.5C0 8.3284 0.6716 9 1.5 9H13.5C14.3284 9 15 8.3284 15 7.5C15 6.6716 14.3284 6 13.5 6Z" fill="#3988FF"/>
<path d="M13.5 12H1.5C0.6716 12 0 12.6716 0 13.5C0 14.3284 0.6716 15 1.5 15H13.5C14.3284 15 15 14.3284 15 13.5C15 12.6716 14.3284 12 13.5 12Z" fill="#3988FF"/>
</svg>
