<svg width="15" height="15" viewBox="0 0 15 15" fill="none" xmlns="http://www.w3.org/2000/svg">
<g clip-path="url(#clip0_24_2)">
<path d="M2.625 11.625H1.5V3.375H7.35L6.75 3.975C6.6 4.125 6.525 4.275 6.525 4.5C6.525 4.95 6.825 5.25 7.275 5.25C7.5 5.25 7.65 5.175 7.8 5.025L9.675 3.15C9.975 2.85 9.975 2.4 9.675 2.1L7.8 0.225C7.5 -0.075 7.05 -0.075 6.75 0.225C6.45 0.525 6.45 0.975 6.75 1.275L7.35 1.875H0.75C0.3 1.875 0 2.175 0 2.625V12.375C0 12.825 0.3 13.125 0.75 13.125H2.625C3.075 13.125 3.375 12.825 3.375 12.375C3.375 11.925 3.075 11.625 2.625 11.625ZM14.25 1.875H12.375C11.925 1.875 11.625 2.175 11.625 2.625C11.625 3.075 11.925 3.375 12.375 3.375H13.5V11.625H7.2L7.8 11.025C8.1 10.725 8.1 10.275 7.8 9.975C7.5 9.675 7.05 9.675 6.75 9.975L4.875 11.85C4.575 12.15 4.575 12.6 4.875 12.9L6.75 14.775C6.9 14.925 7.05 15 7.275 15C7.5 15 7.65 14.925 7.8 14.775C8.1 14.475 8.1 14.025 7.8 13.725L7.2 13.125H14.25C14.7 13.125 15 12.825 15 12.375V2.625C15 2.175 14.7 1.875 14.25 1.875Z" fill="#3988FF"/>
</g>
<defs>
<clipPath id="clip0_24_2">
<rect width="15" height="15" fill="white"/>
</clipPath>
</defs>
</svg>
