<svg width="15" height="15" viewBox="0 0 15 15" fill="none" xmlns="http://www.w3.org/2000/svg">
<path d="M1.93016 0C2.9961 0 3.86032 0.935491 3.86032 2.08934V6.88369C3.94299 6.7816 4.03963 6.6918 4.1514 6.62186L13.2535 0.933601C13.6139 0.708314 14.0575 0.708314 14.4178 0.933601C14.7776 1.15857 15 1.5748 15 2.02506V13.4013C15 13.8515 14.7776 14.2677 14.4178 14.4924C14.2377 14.6049 14.0362 14.6616 13.8357 14.6616C13.6348 14.6616 13.4337 14.6049 13.2535 14.4924L4.1514 8.80414C4.03963 8.73451 3.94299 8.64471 3.86032 8.54262V12.9107C3.86032 14.0645 2.9961 15 1.93016 15C0.86422 15 0 14.0645 0 12.9107V2.08934C0 0.935491 0.86422 0 1.93016 0Z" fill="#3988FF"/>
</svg>
