<svg width="15" height="15" viewBox="0 0 15 15" fill="none" xmlns="http://www.w3.org/2000/svg">
<path d="M13.0698 0C12.0038 0 11.1396 0.935511 11.1396 2.08938V6.88384C11.0566 6.78175 10.96 6.69194 10.8485 6.62199L1.74649 0.933621C1.38613 0.708329 0.942509 0.708329 0.582143 0.933621C0.222069 1.1586 -3.05176e-05 1.57483 -3.05176e-05 2.0251V13.4012C-3.05176e-05 13.8518 0.222069 14.2677 0.582143 14.493C0.762326 14.6052 0.963758 14.6616 1.16432 14.6616C1.36546 14.6616 1.56631 14.6052 1.74649 14.493L10.8485 8.80464C10.96 8.73438 11.0566 8.64458 11.1396 8.54249V12.9106C11.1396 14.0645 12.0038 15 13.0698 15C14.1357 15 15 14.0645 15 12.9106V2.08938C15 0.935511 14.1357 0 13.0698 0Z" fill="#3988FF"/>
</svg>
